<svg width="24" height="24" viewBox="0 0 24 24" fill="none" xmlns="http://www.w3.org/2000/svg">
<path d="M7.80078 5H16.2008V6.4H7.80078V5ZM7.80078 7.8H16.2008V9.2H7.80078V7.8ZM7.80078 17.6H12.0008V19H7.80078V17.6ZM7.80078 10.6H12.0008V12H7.80078V10.6Z" fill="#A8A8A8"/>
<path d="M17.6 21.8H6.4C6.02881 21.7996 5.67293 21.652 5.41046 21.3895C5.14799 21.127 5.00037 20.7711 5 20.4V3.59995C5.00037 3.22876 5.14799 2.87288 5.41046 2.61041C5.67293 2.34794 6.02881 2.20032 6.4 2.19995H17.6C17.9712 2.20032 18.3271 2.34794 18.5895 2.61041C18.852 2.87288 18.9996 3.22876 19 3.59995V20.4C18.9996 20.7711 18.852 21.127 18.5895 21.3895C18.3271 21.652 17.9712 21.7996 17.6 21.8ZM6.4 3.59995V20.4H17.6V3.59995H6.4Z" fill="#A8A8A8"/>
</svg>
