<svg width="151" height="37" viewBox="0 0 151 37" fill="none" xmlns="http://www.w3.org/2000/svg">
<rect width="151" height="37" rx="4" fill="#17191A"/>
<path d="M32.0652 18.0037V26.5037M32.0652 26.5037L35.0652 23.5037M32.0652 26.5037L29.0652 23.5037M28.0652 13.5397C28.8135 13.6467 29.5067 13.9942 30.0402 14.5297M37.5652 20.5037C39.0842 20.5037 40.0652 19.2727 40.0652 17.7537C40.0651 17.1523 39.868 16.5676 39.5039 16.0889C39.1397 15.6103 38.6288 15.2642 38.0492 15.1037C37.96 13.9822 37.4952 12.9235 36.7299 12.0988C35.9646 11.2741 34.9435 10.7317 33.8317 10.5592C32.7199 10.3866 31.5825 10.5941 30.6032 11.148C29.6239 11.7019 28.8601 12.57 28.4352 13.6117C27.5406 13.3637 26.5842 13.4813 25.7763 13.9385C24.9684 14.3957 24.3752 15.1551 24.1272 16.0497C23.8792 16.9443 23.9968 17.9007 24.454 18.7087C24.9112 19.5166 25.6706 20.1097 26.5652 20.3577" stroke="white" stroke-width="1.5" stroke-linecap="round" stroke-linejoin="round"/>
<path d="M53.38 23H50.0167V13.1016H53.4347C56.3878 13.1016 58.1788 14.9609 58.1788 18.0371C58.1788 21.127 56.3878 23 53.38 23ZM51.7941 21.4551H53.2843C55.3487 21.4551 56.4015 20.3203 56.4015 18.0371C56.4015 15.7676 55.3487 14.6465 53.339 14.6465H51.7941V21.4551ZM62.6433 23.1504C60.4831 23.1504 59.0886 21.6191 59.0886 19.3223C59.0886 17.0117 60.4831 15.4805 62.6433 15.4805C64.8171 15.4805 66.198 17.0117 66.198 19.3223C66.198 21.6191 64.8171 23.1504 62.6433 23.1504ZM62.657 21.7559C63.8464 21.7559 64.4343 20.6758 64.4343 19.3086C64.4343 17.9551 63.8464 16.8613 62.657 16.8613C61.4402 16.8613 60.8523 17.9551 60.8523 19.3086C60.8523 20.6758 61.4402 21.7559 62.657 21.7559ZM68.6253 23L66.5199 15.5762H68.2972L69.6097 20.7988H69.6781L71.0042 15.5762H72.7679L74.1078 20.7715H74.1761L75.4749 15.5762H77.2523L75.1468 23H73.3285L71.9339 17.9688H71.8382L70.4437 23H68.6253ZM79.8437 18.6523V23H78.0937V15.5762H79.7617V16.834H79.8574C80.1992 16 80.9511 15.4805 82.0586 15.4805C83.6035 15.4805 84.6152 16.4922 84.6015 18.2695V23H82.8652V18.543C82.8652 17.5449 82.332 16.957 81.416 16.957C80.4863 16.957 79.8437 17.5723 79.8437 18.6523ZM87.7535 13.1016V23H86.0035V13.1016H87.7535ZM92.3957 23.1504C90.2355 23.1504 88.841 21.6191 88.841 19.3223C88.841 17.0117 90.2355 15.4805 92.3957 15.4805C94.5695 15.4805 95.9504 17.0117 95.9504 19.3223C95.9504 21.6191 94.5695 23.1504 92.3957 23.1504ZM92.4094 21.7559C93.5988 21.7559 94.1867 20.6758 94.1867 19.3086C94.1867 17.9551 93.5988 16.8613 92.4094 16.8613C91.1926 16.8613 90.6047 17.9551 90.6047 19.3086C90.6047 20.6758 91.1926 21.7559 92.4094 21.7559ZM96.6961 20.9082C96.6961 19.2402 98.077 18.748 99.4578 18.666C99.9705 18.6318 101.037 18.5703 101.358 18.5566V17.9688C101.358 17.2305 100.88 16.8066 100.018 16.8066C99.2391 16.8066 98.7606 17.1621 98.6238 17.6953H96.9422C97.0652 16.4375 98.2 15.4805 100.059 15.4805C101.468 15.4805 103.095 16.0547 103.095 18.0371V23H101.427V21.9746H101.372C101.044 22.6035 100.346 23.1504 99.1844 23.1504C97.7625 23.1504 96.6961 22.3711 96.6961 20.9082ZM98.3777 20.8945C98.3777 21.5371 98.8973 21.8652 99.6356 21.8652C100.688 21.8652 101.372 21.168 101.372 20.334V19.7188C101.051 19.7393 100.08 19.8076 99.7313 19.8281C98.8973 19.8965 98.3777 20.2383 98.3777 20.8945ZM107.231 23.1367C105.481 23.1367 104.168 21.7422 104.168 19.2949C104.168 16.8203 105.522 15.4805 107.245 15.4805C108.557 15.4805 109.104 16.2598 109.364 16.793H109.432V13.1016H111.168V23H109.459V21.8242H109.364C109.09 22.3711 108.516 23.1367 107.231 23.1367ZM107.709 21.7012C108.83 21.7012 109.473 20.7305 109.473 19.2812C109.473 17.8457 108.844 16.9023 107.709 16.9023C106.547 16.9023 105.946 17.9004 105.946 19.2812C105.946 20.6895 106.561 21.7012 107.709 21.7012ZM117.062 23H115.162L118.648 13.1016H120.836L124.336 23H122.435L121.615 20.5527H117.882L117.062 23ZM118.361 19.1172H121.136L119.783 15.125H119.701L118.361 19.1172ZM126.913 13.1016V23H125.163V13.1016H126.913ZM130.065 13.1016V23H128.315V13.1016H130.065Z" fill="white"/>
</svg>
