<svg width="128" height="32" viewBox="0 0 128 32" fill="none" xmlns="http://www.w3.org/2000/svg">
<rect y="0.5" width="127.936" height="31" rx="4" fill="#242627"/>
<path d="M21.0089 20.5V10.6016H27.4484V12.0918H22.7862V14.7988H27.1066V16.2891H22.7862V18.9961H27.4757V20.5H21.0089ZM31.571 20.6367C29.821 20.6367 28.5085 19.2422 28.5085 16.7949C28.5085 14.3203 29.862 12.9805 31.5847 12.9805C32.8972 12.9805 33.4441 13.7598 33.7038 14.293H33.7722V10.6016H35.5085V20.5H33.7995V19.3242H33.7038C33.4304 19.8711 32.8562 20.6367 31.571 20.6367ZM32.0495 19.2012C33.1706 19.2012 33.8132 18.2305 33.8132 16.7812C33.8132 15.3457 33.1843 14.4023 32.0495 14.4023C30.8874 14.4023 30.2859 15.4004 30.2859 16.7812C30.2859 18.1895 30.9011 19.2012 32.0495 19.2012ZM37.0062 20.5V13.0762H38.7562V20.5H37.0062ZM37.8949 12.0234C37.348 12.0234 36.8832 11.5996 36.8832 11.0664C36.8832 10.5469 37.348 10.123 37.8949 10.123C38.4554 10.123 38.9066 10.5469 38.9066 11.0664C38.9066 11.5996 38.4554 12.0234 37.8949 12.0234ZM43.8632 13.0762V14.416H42.4004V18.2715C42.4004 18.9824 42.7558 19.1328 43.1933 19.1328C43.3984 19.1328 43.7402 19.1191 43.9589 19.1055V20.5273C43.7539 20.5684 43.4121 20.5957 42.9746 20.5957C41.6621 20.5957 40.6504 19.9531 40.664 18.5586V14.416H39.5976V13.0762H40.664V11.2988H42.4004V13.0762H43.8632ZM47.9934 23.2891V13.0762H49.7023V14.293H49.8117C50.0851 13.7598 50.632 12.9805 51.9445 12.9805C53.6535 12.9805 55.007 14.3203 55.007 16.7949C55.007 19.2422 53.6945 20.6367 51.9445 20.6367C50.6594 20.6367 50.0851 19.8711 49.8117 19.3242H49.7434V23.2891H47.9934ZM49.7023 16.7812C49.7023 18.2305 50.3312 19.2012 51.466 19.2012C52.6144 19.2012 53.2297 18.1895 53.2297 16.7812C53.2297 15.4004 52.6281 14.4023 51.466 14.4023C50.3312 14.4023 49.7023 15.3457 49.7023 16.7812ZM56.1082 20.5V13.0762H57.8035V14.3066H57.8856C58.1453 13.459 58.8699 12.9668 59.7176 12.9668C59.909 12.9668 60.1824 12.9805 60.3465 13.0078V14.6211C60.1961 14.5664 59.827 14.5117 59.5399 14.5117C58.5691 14.5117 57.8582 15.1816 57.8582 16.125V20.5H56.1082ZM64.1137 20.6504C61.9535 20.6504 60.559 19.1191 60.559 16.8223C60.559 14.5117 61.9535 12.9805 64.1137 12.9805C66.2875 12.9805 67.6684 14.5117 67.6684 16.8223C67.6684 19.1191 66.2875 20.6504 64.1137 20.6504ZM64.1274 19.2559C65.3168 19.2559 65.9047 18.1758 65.9047 16.8086C65.9047 15.4551 65.3168 14.3613 64.1274 14.3613C62.9106 14.3613 62.3227 15.4551 62.3227 16.8086C62.3227 18.1758 62.9106 19.2559 64.1274 19.2559ZM72.5157 13.0762V14.416H70.9844V20.5H69.2344V14.416H68.127V13.0762H69.2344V12.3652C69.2344 10.916 70.1368 10.1367 71.5586 10.1367C71.9688 10.1367 72.3379 10.1777 72.6661 10.2461V11.627C72.3789 11.5859 72.1602 11.5723 72.0372 11.5723C71.3262 11.5723 70.9844 11.8594 70.9844 12.5293V13.0762H72.5157ZM73.4938 20.5V13.0762H75.2438V20.5H73.4938ZM74.3825 12.0234C73.8356 12.0234 73.3708 11.5996 73.3708 11.0664C73.3708 10.5469 73.8356 10.123 74.3825 10.123C74.943 10.123 75.3942 10.5469 75.3942 11.0664C75.3942 11.5996 74.943 12.0234 74.3825 12.0234ZM78.3958 10.6016V20.5H76.6458V10.6016H78.3958ZM83.0927 20.6504C80.8505 20.6504 79.4833 19.1602 79.4833 16.8359C79.4833 14.5391 80.8778 12.9805 82.997 12.9805C84.8153 12.9805 86.3876 14.1152 86.3876 16.7266V17.2734H81.2059C81.2265 18.5381 81.9716 19.2832 83.1063 19.2832C83.872 19.2832 84.3915 18.9551 84.6102 18.5176H86.3192C86.0048 19.8027 84.8153 20.6504 83.0927 20.6504ZM81.2196 16.084H84.7196C84.7059 15.0723 84.036 14.334 83.0243 14.334C81.9716 14.334 81.2743 15.1338 81.2196 16.084Z" fill="white"/>
<g clip-path="url(#clip0_307_3684)">
<path d="M101.355 13.9534L97.2294 13.8309L97.2293 13.8309C97.0747 13.8263 96.9269 13.7607 96.8169 13.6507C96.7069 13.5407 96.6413 13.3929 96.6367 13.2383C96.6321 13.0832 96.6894 12.9337 96.7986 12.8245C96.9078 12.7152 97.0574 12.658 97.2124 12.6626L102.732 12.8272L101.355 13.9534ZM101.355 13.9534L96.0711 19.2371C95.962 19.3462 95.9048 19.4956 95.9094 19.6505C95.914 19.805 95.9795 19.9526 96.0894 20.0625C96.1993 20.1724 96.347 20.238 96.5014 20.2426C96.6563 20.2472 96.8057 20.19 96.9148 20.0808L102.199 14.7971L102.321 18.9226L102.321 18.9226C102.326 19.0772 102.391 19.225 102.501 19.335C102.611 19.445 102.759 19.5106 102.914 19.5152C103.069 19.5199 103.218 19.4626 103.327 19.3533C103.437 19.2441 103.494 19.0946 103.489 18.9396L103.325 13.42L101.355 13.9534ZM103.274 13.1969C103.305 13.2675 103.323 13.3432 103.325 13.4198L103.274 13.1969ZM103.274 13.1969C103.243 13.1263 103.199 13.0619 103.145 13.0073M103.274 13.1969L103.145 13.0073M103.145 13.0073C103.09 12.9526 103.026 12.9085 102.955 12.8776M103.145 13.0073L102.955 12.8776M102.955 12.8776C102.884 12.8467 102.809 12.8294 102.732 12.8272L102.955 12.8776Z" fill="white" stroke="white" stroke-width="0.3"/>
</g>
<defs>
<clipPath id="clip0_307_3684">
<rect width="11.5665" height="10.9706" fill="white" transform="translate(92 16.2107) rotate(-45)"/>
</clipPath>
</defs>
</svg>
