<svg width="24" height="24" viewBox="0 0 24 24" fill="none" xmlns="http://www.w3.org/2000/svg">
<path d="M13.0851 5.14641C13.0238 5.08294 12.9481 5.03516 12.8644 5.00712L12.7789 4.97849C12.7226 4.95962 12.6636 4.95 12.6042 4.95H6.67214C6.52579 4.95 6.38546 5.00833 6.28224 5.11209L6.1101 5.28511C6.00756 5.38817 5.95 5.52764 5.95 5.67302V16.4603C5.95 16.6057 6.00756 16.7452 6.1101 16.8482L6.28224 17.0212C6.38546 17.125 6.52579 17.1833 6.67214 17.1833H10.1762C10.4615 17.1833 10.6929 16.952 10.6929 16.6667C10.6929 16.3813 10.4615 16.15 10.1762 16.15H6.97857V5.98333H11.5214V9.16667C11.5214 9.47042 11.7677 9.71667 12.0714 9.71667H15.2357V10.1357C15.2357 10.4197 15.466 10.65 15.75 10.65C16.034 10.65 16.2643 10.4197 16.2643 10.1357V8.79458C16.2643 8.74983 16.2588 8.70525 16.248 8.66183L16.2024 8.4782C16.179 8.38433 16.1313 8.29828 16.0641 8.22873L13.0851 5.14641ZM15.0754 8.68333H12.55V6.05745L15.0754 8.68333ZM15.75 19.05C16.034 19.05 16.2643 18.8197 16.2643 18.5357V16.25H18.5333C18.8187 16.25 19.05 16.0187 19.05 15.7333C19.05 15.448 18.8187 15.2167 18.5333 15.2167H16.2643V12.931C16.2643 12.6469 16.034 12.4167 15.75 12.4167C15.466 12.4167 15.2357 12.6469 15.2357 12.931V15.2167H12.9667C12.6813 15.2167 12.45 15.448 12.45 15.7333C12.45 16.0187 12.6813 16.25 12.9667 16.25H15.2357V18.5357C15.2357 18.8197 15.466 19.05 15.75 19.05Z" fill="white" stroke="white" stroke-width="0.1"/>
</svg>
