<svg width="24" height="25" viewBox="0 0 24 25" fill="none" xmlns="http://www.w3.org/2000/svg">
<path d="M12.002 2.5C17.525 2.5 22.002 6.977 22.002 12.5C22.002 18.023 17.525 22.5 12.002 22.5C10.2347 22.5029 8.49862 22.0352 6.97197 21.145L2.00597 22.5L3.35797 17.532C2.46706 16.0049 1.99901 14.268 2.00197 12.5C2.00197 6.977 6.47897 2.5 12.002 2.5ZM8.59397 7.8L8.39397 7.808C8.26449 7.81589 8.13795 7.8499 8.02197 7.908C7.91349 7.96943 7.81446 8.04622 7.72797 8.136C7.60797 8.249 7.53997 8.347 7.46697 8.442C7.09709 8.9229 6.89794 9.51331 6.90097 10.12C6.90297 10.61 7.03097 11.087 7.23097 11.533C7.63997 12.435 8.31297 13.39 9.20097 14.275C9.41497 14.488 9.62497 14.702 9.85097 14.901C10.9544 15.8725 12.2692 16.573 13.691 16.947L14.259 17.034C14.444 17.044 14.629 17.03 14.815 17.021C15.1062 17.006 15.3906 16.9271 15.648 16.79C15.7789 16.7225 15.9067 16.6491 16.031 16.57C16.031 16.57 16.074 16.542 16.156 16.48C16.291 16.38 16.374 16.309 16.486 16.192C16.569 16.106 16.641 16.005 16.696 15.89C16.774 15.727 16.852 15.416 16.884 15.157C16.908 14.959 16.901 14.851 16.898 14.784C16.894 14.677 16.805 14.566 16.708 14.519L16.126 14.258C16.126 14.258 15.256 13.879 14.724 13.637C14.6683 13.6127 14.6086 13.5988 14.548 13.596C14.4795 13.589 14.4104 13.5967 14.3452 13.6186C14.28 13.6405 14.2203 13.6761 14.17 13.723C14.165 13.721 14.098 13.778 13.375 14.654C13.3335 14.7098 13.2763 14.7519 13.2108 14.7751C13.1452 14.7982 13.0743 14.8013 13.007 14.784C12.9418 14.7665 12.878 14.7445 12.816 14.718C12.692 14.666 12.649 14.646 12.564 14.61C11.99 14.3595 11.4587 14.0211 10.989 13.607C10.863 13.497 10.746 13.377 10.626 13.261C10.2326 12.8842 9.88969 12.458 9.60597 11.993L9.54697 11.898C9.50459 11.8342 9.47033 11.7653 9.44497 11.693C9.40697 11.546 9.50597 11.428 9.50597 11.428C9.50597 11.428 9.74897 11.162 9.86197 11.018C9.97197 10.878 10.065 10.742 10.125 10.645C10.243 10.455 10.28 10.26 10.218 10.109C9.93797 9.425 9.64797 8.744 9.34997 8.068C9.29097 7.934 9.11597 7.838 8.95697 7.819C8.90297 7.813 8.84897 7.807 8.79497 7.803C8.66067 7.79633 8.5261 7.79766 8.39197 7.807L8.59297 7.799L8.59397 7.8Z" fill="white"/>
</svg>
