<svg width="50" height="50" viewBox="0 0 50 50" fill="none" xmlns="http://www.w3.org/2000/svg">
<rect x="0.5" y="0.5" width="49" height="49" rx="24.5" fill="#101213"/>
<path d="M25 15C25.5523 15 26 14.5523 26 14C26 13.4477 25.5523 13 25 13C24.4477 13 24 13.4477 24 14C24 14.5523 24.4477 15 25 15Z" stroke="#59AAD7" stroke-opacity="0.666667" stroke-width="2"/>
<path d="M19 31V22C19 20.4087 19.6321 18.8826 20.7574 17.7574C21.8826 16.6321 23.4087 16 25 16C26.5913 16 28.1174 16.6321 29.2426 17.7574C30.3679 18.8826 31 20.4087 31 22V31M19 31H31M19 31H17M31 31H33M24 34H26" stroke="#59AAD7" stroke-opacity="0.666667" stroke-width="2" stroke-linecap="round" stroke-linejoin="round"/>
<rect x="0.5" y="0.5" width="49" height="49" rx="24.5" stroke="#4C4C4C"/>
</svg>
