<svg width="530" height="150" viewBox="0 0 530 150" fill="none" xmlns="http://www.w3.org/2000/svg">
<g filter="url(#filter0_d_271_2371)">
<rect x="50" y="46" width="430" height="50" rx="12" fill="#17191A"/>
<g clip-path="url(#clip0_271_2371)">
<path d="M91.4351 73.0629H90.7124L90.4563 72.8159C91.3528 71.773 91.8925 70.4191 91.8925 68.9463C91.8925 65.6621 89.2304 63 85.9463 63C82.6621 63 80 65.6621 80 68.9463C80 72.2304 82.6621 74.8925 85.9463 74.8925C87.4191 74.8925 88.773 74.3528 89.8159 73.4563L90.0629 73.7124V74.4351L94.6369 79L96 77.6369L91.4351 73.0629ZM85.9463 73.0629C83.6684 73.0629 81.8296 71.2241 81.8296 68.9463C81.8296 66.6684 83.6684 64.8296 85.9463 64.8296C88.2241 64.8296 90.0629 66.6684 90.0629 68.9463C90.0629 71.2241 88.2241 73.0629 85.9463 73.0629Z" fill="#A8A8A8"/>
</g>
<path d="M113.312 68.1719C113.203 67.125 112.281 66.5156 110.984 66.5156C109.594 66.5156 108.719 67.2188 108.719 68.1875C108.719 69.2656 109.891 69.6719 110.781 69.8906L111.875 70.1875C113.328 70.5312 115.125 71.3281 115.141 73.375C115.125 75.2812 113.609 76.6875 110.938 76.6875C108.406 76.6875 106.812 75.4219 106.703 73.3594H108.422C108.531 74.5938 109.609 75.1875 110.938 75.1875C112.375 75.1875 113.422 74.4531 113.438 73.3438C113.422 72.3594 112.5 71.9531 111.297 71.6406L109.953 71.2812C108.141 70.7812 107 69.8594 107 68.2812C107 66.3281 108.75 65.0312 111.031 65.0312C113.328 65.0312 114.938 66.3438 114.984 68.1719H113.312ZM120.5 76.6719C118 76.6719 116.469 74.9531 116.469 72.3125C116.469 69.7031 118.031 67.9062 120.391 67.9062C122.328 67.9062 124.156 69.1094 124.156 72.1719V72.7656H118.125C118.172 74.375 119.117 75.2969 120.516 75.2969C121.469 75.2969 122.078 74.8906 122.359 74.375H124.047C123.672 75.75 122.359 76.6719 120.5 76.6719ZM118.141 71.5156H122.516C122.516 70.2188 121.688 69.2812 120.406 69.2812C119.07 69.2812 118.203 70.3125 118.141 71.5156ZM125.422 74.1094C125.422 72.1719 127.062 71.6719 128.594 71.5625C129.156 71.5234 130.43 71.4531 130.828 71.4375L130.812 70.7656C130.812 69.8125 130.234 69.25 129.094 69.25C128.109 69.25 127.516 69.7031 127.344 70.3281H125.688C125.844 68.9219 127.156 67.9062 129.156 67.9062C130.5 67.9062 132.484 68.4062 132.484 70.8594V76.5H130.859V75.3438H130.797C130.469 75.9844 129.688 76.6875 128.281 76.6875C126.672 76.6875 125.422 75.7656 125.422 74.1094ZM127.047 74.125C127.047 74.9375 127.719 75.3594 128.656 75.3594C130.016 75.3594 130.828 74.4531 130.828 73.4375V72.6562C130.438 72.6875 129.219 72.7734 128.828 72.7969C127.734 72.875 127.047 73.2812 127.047 74.125ZM134.5 76.5V68.0156H136.109V69.3594H136.203C136.516 68.4531 137.359 67.8906 138.359 67.8906C138.562 67.8906 138.891 67.9062 139.062 67.9219V69.5156C138.922 69.4844 138.531 69.4219 138.188 69.4219C137.031 69.4219 136.172 70.2188 136.172 71.3281V76.5H134.5ZM143.625 76.6719C141.156 76.6719 139.656 74.8438 139.656 72.2969C139.656 69.7031 141.203 67.9062 143.594 67.9062C145.531 67.9062 146.938 69.0469 147.109 70.7656H145.484C145.312 69.9688 144.672 69.2969 143.625 69.2969C142.25 69.2969 141.328 70.4375 141.328 72.25C141.328 74.1094 142.234 75.25 143.625 75.25C144.562 75.25 145.281 74.7344 145.484 73.8125H147.109C146.922 75.4531 145.625 76.6719 143.625 76.6719ZM150.359 71.4688V76.5H148.688V65.1875H150.328V69.4062H150.438C150.844 68.4844 151.625 67.9062 152.953 67.9062C154.703 67.9062 155.859 68.9844 155.859 71.1094V76.5H154.188V71.3125C154.188 70.0625 153.516 69.3438 152.391 69.3438C151.219 69.3438 150.359 70.1094 150.359 71.4688Z" fill="#A8A8A8"/>
</g>
<defs>
<filter id="filter0_d_271_2371" x="0" y="0" width="530" height="150" filterUnits="userSpaceOnUse" color-interpolation-filters="sRGB">
<feFlood flood-opacity="0" result="BackgroundImageFix"/>
<feColorMatrix in="SourceAlpha" type="matrix" values="0 0 0 0 0 0 0 0 0 0 0 0 0 0 0 0 0 0 127 0" result="hardAlpha"/>
<feOffset dy="4"/>
<feGaussianBlur stdDeviation="25"/>
<feComposite in2="hardAlpha" operator="out"/>
<feColorMatrix type="matrix" values="0 0 0 0 0 0 0 0 0 0 0 0 0 0 0 0 0 0 0.02 0"/>
<feBlend mode="normal" in2="BackgroundImageFix" result="effect1_dropShadow_271_2371"/>
<feBlend mode="normal" in="SourceGraphic" in2="effect1_dropShadow_271_2371" result="shape"/>
</filter>
<clipPath id="clip0_271_2371">
<rect width="24" height="24" fill="white" transform="translate(76 59)"/>
</clipPath>
</defs>
</svg>
