<svg width="24" height="24" viewBox="0 0 24 24" fill="none" xmlns="http://www.w3.org/2000/svg">
<path d="M8.67761 17.7736L8.67764 17.7736C8.69605 17.7848 8.71467 17.7958 8.73349 17.8067C8.7335 17.8067 8.7335 17.8067 8.73351 17.8067L8.30889 18.543C8.62833 18.7272 8.87777 19.0284 8.92351 19.3943L9.13972 21.124C9.20228 21.6245 9.62768 22 10.132 22H13.8664C14.3708 22 14.7962 21.6245 14.8587 21.124L15.0772 19.3758C15.1217 19.0198 15.3573 18.7209 15.6702 18.5452C15.6966 18.5304 15.7229 18.5154 15.7492 18.5C15.7842 18.4796 15.8189 18.459 15.8533 18.4381L8.67761 17.7736ZM8.67761 17.7736C8.6494 17.7564 8.62128 17.7391 8.59327 17.7215C8.09033 17.4062 7.43194 17.3048 6.82424 17.5602L5.18163 18.2503C5.11203 18.2796 5.03154 18.2525 4.99371 18.1872L3.12759 14.9639C3.08965 14.8984 3.10649 14.8148 3.16684 14.7691L4.76695 13.5574C5.19709 13.2317 5.34922 12.7411 5.34922 12.337V11.663C5.34922 11.2589 5.19709 10.7683 4.76695 10.4426L3.16684 9.23086C3.10649 9.18515 3.08965 9.10164 3.12759 9.03612L4.99371 5.81281C5.03154 5.74747 5.11203 5.72043 5.18163 5.74968L6.82529 6.44029C7.43305 6.69565 8.08614 6.59213 8.58456 6.28953L8.58457 6.28953M8.67761 17.7736L8.58457 6.28953M8.58457 6.28953C8.61529 6.27087 8.64627 6.25244 8.67751 6.23421L8.67751 6.23421M8.58457 6.28953L8.67751 6.23421M8.67751 6.23421C8.69983 6.22119 8.72208 6.20846 8.74429 6.19599C9.24515 5.91481 9.68045 5.40306 9.76464 4.72959L9.98316 2.9814L9.13972 2.87597M8.67751 6.23421L9.13972 2.87597M9.13972 2.87597L9.98316 2.9814C9.99254 2.90633 10.0564 2.85 10.132 2.85H13.8664C13.9421 2.85 14.0059 2.90633 14.0153 2.98139L14.2315 4.71112C14.3187 5.40912 14.7812 5.91435 15.2649 6.19333L15.6895 5.45698M9.13972 2.87597L15.6895 5.45698M15.6895 5.45698L15.2649 6.19333C15.2837 6.20416 15.3024 6.21519 15.3208 6.22641L15.7622 5.5L15.3208 6.22641C15.3491 6.24356 15.3772 6.26091 15.4052 6.27847L15.6895 5.45698ZM12.0492 16.35C13.2412 16.35 14.2825 15.9188 15.1253 15.076L7.69922 12C7.69922 12.0002 7.69922 12.0004 7.69922 12.0006C7.69936 13.1889 8.12359 14.2287 8.95635 15.0722C9.7951 15.9217 10.8442 16.35 12.0492 16.35Z" fill="#A8A8A8" stroke="#A8A8A8" stroke-width="1.7"/>
</svg>
