<svg width="24" height="24" viewBox="0 0 24 24" fill="none" xmlns="http://www.w3.org/2000/svg">
<path d="M5 19.0012V19V10C5 9.83903 5.03465 9.69243 5.10701 9.54806C5.17992 9.40256 5.2736 9.293 5.39239 9.20565L5.39242 9.20569L5.4 9.2L11.3933 4.705C11.4981 4.62955 11.5971 4.58005 11.6912 4.54868C11.7864 4.51695 11.8878 4.5 12 4.5C12.1122 4.5 12.2136 4.51695 12.3088 4.54868C12.4029 4.58006 12.502 4.62956 12.6067 4.70501L18.6 9.2L18.6 9.20005L18.6086 9.2064C18.7278 9.29383 18.8214 9.4032 18.894 9.54806C18.966 9.6918 19.0003 9.83764 19 9.99789V10V19C19 19.2824 18.911 19.4998 18.7049 19.7059C18.4988 19.912 18.2822 20.0003 18.0012 20H18H15V14.2C15 13.5373 14.4627 13 13.8 13H10.2C9.53726 13 9 13.5373 9 14.2V20H6C5.71758 20 5.50025 19.911 5.29411 19.7049C5.088 19.4988 4.99966 19.2822 5 19.0012Z" stroke="#A8A8A8" stroke-width="2"/>
</svg>
