<svg width="24" height="24" viewBox="0 0 24 24" fill="none" xmlns="http://www.w3.org/2000/svg">
<rect width="24" height="24" fill="#4F4F4F"/>
<g id="Dark version" clip-path="url(#clip0_0_1)">
<rect width="1440" height="1057" transform="translate(-32 -362)" fill="#0B0D0F"/>
<g id="Group 40">
<rect id="Rectangle 8" x="-32" y="-362" width="204" height="1057" fill="#0B0D0F"/>
<g id="Frame 606">
<g id="Frame 427319399">
<g id="Frame 427319138">
<g id="Frame 1">
<g id="mdi:trash-outline">
<path id="Vector" d="M6 19C6 19.5304 6.21071 20.0391 6.58579 20.4142C6.96086 20.7893 7.46957 21 8 21H16C16.5304 21 17.0391 20.7893 17.4142 20.4142C17.7893 20.0391 18 19.5304 18 19V7H6V19ZM8 9H16V19H8V9ZM15.5 4L14.5 3H9.5L8.5 4H5V6H19V4H15.5Z" fill="#A8A8A8"/>
</g>
</g>
</g>
</g>
</g>
</g>
</g>
<defs>
<clipPath id="clip0_0_1">
<rect width="1440" height="1057" fill="white" transform="translate(-32 -362)"/>
</clipPath>
</defs>
</svg>
