<svg width="24" height="24" viewBox="0 0 24 24" fill="none" xmlns="http://www.w3.org/2000/svg">
<g clip-path="url(#clip0_380_982)">
<path fill-rule="evenodd" clip-rule="evenodd" d="M21.2166 10.9391C21.4975 11.2204 21.6553 11.6016 21.6553 11.9991C21.6553 12.3966 21.4975 12.7779 21.2166 13.0591L15.5606 18.7171C15.2792 18.9984 14.8976 19.1563 14.4998 19.1562C14.1019 19.1562 13.7204 18.998 13.4391 18.7166C13.1579 18.4352 12.9999 18.0536 13 17.6558C13.0001 17.2579 13.1582 16.8764 13.4396 16.5951L18.0356 11.9991L13.4396 7.40312C13.1663 7.12035 13.0149 6.74151 13.0181 6.34822C13.0213 5.95492 13.1789 5.57862 13.4569 5.30038C13.7349 5.02213 14.111 4.8642 14.5043 4.8606C14.8976 4.857 15.2766 5.00801 15.5596 5.28112L21.2176 10.9381L21.2166 10.9391Z" fill="white"/>
</g>
<defs>
<clipPath id="clip0_380_982">
<rect width="24" height="24" fill="white" transform="matrix(0 -1 1 0 0 24)"/>
</clipPath>
</defs>
</svg>
