<svg width="136" height="34" viewBox="0 0 136 34" fill="none" xmlns="http://www.w3.org/2000/svg">
<rect x="0.5" y="0.5" width="135" height="33" rx="16.5" fill="#242627"/>
<path d="M30 18H25V23C25 23.55 24.55 24 24 24C23.45 24 23 23.55 23 23V18H18C17.45 18 17 17.55 17 17C17 16.45 17.45 16 18 16H23V11C23 10.45 23.45 10 24 10C24.55 10 25 10.45 25 11V16H30C30.55 16 31 16.45 31 17C31 17.55 30.55 18 30 18Z" fill="white"/>
<path d="M50.3438 11.6875V23H48.5312L43.1719 15.2656H43.0781V23H41.0469V11.6875H42.8906L48.2188 19.4219H48.3281V11.6875H50.3438ZM56.1094 23.1719C53.5469 23.1719 51.9844 21.4688 51.9844 18.8125C51.9844 16.1875 53.5781 14.4062 56 14.4062C58.0781 14.4062 59.875 15.7031 59.875 18.6875V19.3125H53.9531C53.9766 20.7578 54.8281 21.6094 56.125 21.6094C57 21.6094 57.5938 21.2344 57.8438 20.7344H59.7969C59.4375 22.2031 58.0781 23.1719 56.1094 23.1719ZM53.9688 17.9531H57.9688C57.9531 16.7969 57.1875 15.9531 56.0312 15.9531C54.8281 15.9531 54.0312 16.8672 53.9688 17.9531ZM63.1406 23L60.7344 14.5156H62.7656L64.2656 20.4844H64.3438L65.8594 14.5156H67.875L69.4062 20.4531H69.4844L70.9688 14.5156H73L70.5938 23H68.5156L66.9219 17.25H66.8125L65.2188 23H63.1406ZM78.1562 23V11.6875H85.4062V13.3906H80.1875V16.4844H84.9062V18.1875H80.1875V23H78.1562ZM90.1094 23.1719C87.6406 23.1719 86.0469 21.4219 86.0469 18.7969C86.0469 16.1562 87.6406 14.4062 90.1094 14.4062C92.5938 14.4062 94.1719 16.1562 94.1719 18.7969C94.1719 21.4219 92.5938 23.1719 90.1094 23.1719ZM90.125 21.5781C91.4844 21.5781 92.1562 20.3438 92.1562 18.7812C92.1562 17.2344 91.4844 15.9844 90.125 15.9844C88.7344 15.9844 88.0625 17.2344 88.0625 18.7812C88.0625 20.3438 88.7344 21.5781 90.125 21.5781ZM97.7188 11.6875V23H95.7188V11.6875H97.7188ZM102.781 23.1562C100.781 23.1562 99.2812 21.5625 99.2812 18.7656C99.2812 15.9375 100.828 14.4062 102.797 14.4062C104.297 14.4062 104.922 15.2969 105.219 15.9062H105.297V11.6875H107.281V23H105.328V21.6562H105.219C104.906 22.2812 104.25 23.1562 102.781 23.1562ZM103.328 21.5156C104.609 21.5156 105.344 20.4062 105.344 18.75C105.344 17.1094 104.625 16.0312 103.328 16.0312C102 16.0312 101.312 17.1719 101.312 18.75C101.312 20.3594 102.016 21.5156 103.328 21.5156ZM113.062 23.1719C110.5 23.1719 108.938 21.4688 108.938 18.8125C108.938 16.1875 110.531 14.4062 112.953 14.4062C115.031 14.4062 116.828 15.7031 116.828 18.6875V19.3125H110.906C110.93 20.7578 111.781 21.6094 113.078 21.6094C113.953 21.6094 114.547 21.2344 114.797 20.7344H116.75C116.391 22.2031 115.031 23.1719 113.062 23.1719ZM110.922 17.9531H114.922C114.906 16.7969 114.141 15.9531 112.984 15.9531C111.781 15.9531 110.984 16.8672 110.922 17.9531ZM118.375 23V14.5156H120.312V15.9219H120.406C120.703 14.9531 121.531 14.3906 122.5 14.3906C122.719 14.3906 123.031 14.4062 123.219 14.4375V16.2812C123.047 16.2188 122.625 16.1562 122.297 16.1562C121.188 16.1562 120.375 16.9219 120.375 18V23H118.375Z" fill="white"/>
<rect x="0.5" y="0.5" width="135" height="33" rx="16.5" stroke="#343434"/>
</svg>
