<svg width="158" height="34" viewBox="0 0 158 34" fill="none" xmlns="http://www.w3.org/2000/svg">
<rect x="0.5" y="0.5" width="157" height="33" rx="16.5" fill="#242627"/>
<path d="M30 18H25V23C25 23.55 24.55 24 24 24C23.45 24 23 23.55 23 23V18H18C17.45 18 17 17.55 17 17C17 16.45 17.45 16 18 16H23V11C23 10.45 23.45 10 24 10C24.55 10 25 10.45 25 11V16H30C30.55 16 31 16.45 31 17C31 17.55 30.55 18 30 18Z" fill="white"/>
<path d="M50.3438 11.6875V23H48.5312L43.1719 15.2656H43.0781V23H41.0469V11.6875H42.8906L48.2188 19.4219H48.3281V11.6875H50.3438ZM56.1094 23.1719C53.5469 23.1719 51.9844 21.4688 51.9844 18.8125C51.9844 16.1875 53.5781 14.4062 56 14.4062C58.0781 14.4062 59.875 15.7031 59.875 18.6875V19.3125H53.9531C53.9766 20.7578 54.8281 21.6094 56.125 21.6094C57 21.6094 57.5938 21.2344 57.8438 20.7344H59.7969C59.4375 22.2031 58.0781 23.1719 56.1094 23.1719ZM53.9688 17.9531H57.9688C57.9531 16.7969 57.1875 15.9531 56.0312 15.9531C54.8281 15.9531 54.0312 16.8672 53.9688 17.9531ZM63.1406 23L60.7344 14.5156H62.7656L64.2656 20.4844H64.3438L65.8594 14.5156H67.875L69.4062 20.4531H69.4844L70.9688 14.5156H73L70.5938 23H68.5156L66.9219 17.25H66.8125L65.2188 23H63.1406ZM77.6562 13.3906V11.6875H86.6719V13.3906H83.1875V23H81.1562V13.3906H77.6562ZM90.7031 23.1719C88.1406 23.1719 86.5781 21.4688 86.5781 18.8125C86.5781 16.1875 88.1719 14.4062 90.5938 14.4062C92.6719 14.4062 94.4688 15.7031 94.4688 18.6875V19.3125H88.5469C88.5703 20.7578 89.4219 21.6094 90.7188 21.6094C91.5938 21.6094 92.1875 21.2344 92.4375 20.7344H94.3906C94.0312 22.2031 92.6719 23.1719 90.7031 23.1719ZM88.5625 17.9531H92.5625C92.5469 16.7969 91.7812 15.9531 90.625 15.9531C89.4219 15.9531 88.625 16.8672 88.5625 17.9531ZM96.0156 23V14.5156H97.9219V15.9531H98.0312C98.375 14.9844 99.2344 14.4062 100.359 14.4062C101.516 14.4062 102.328 14.9844 102.656 15.9531H102.75C103.125 15.0156 104.062 14.4062 105.297 14.4062C106.844 14.4062 107.938 15.4062 107.938 17.2969V23H105.953V17.6094C105.953 16.5469 105.312 16.0781 104.5 16.0781C103.516 16.0781 102.953 16.75 102.953 17.7031V23H101.016V17.5312C101.016 16.6562 100.422 16.0781 99.5781 16.0781C98.7188 16.0781 98.0156 16.7812 98.0156 17.8438V23H96.0156ZM109.844 26.1875V14.5156H111.797V15.9062H111.922C112.234 15.2969 112.859 14.4062 114.359 14.4062C116.312 14.4062 117.859 15.9375 117.859 18.7656C117.859 21.5625 116.359 23.1562 114.359 23.1562C112.891 23.1562 112.234 22.2812 111.922 21.6562H111.844V26.1875H109.844ZM111.797 18.75C111.797 20.4062 112.516 21.5156 113.812 21.5156C115.125 21.5156 115.828 20.3594 115.828 18.75C115.828 17.1719 115.141 16.0312 113.812 16.0312C112.516 16.0312 111.797 17.1094 111.797 18.75ZM121.422 11.6875V23H119.422V11.6875H121.422ZM122.938 20.6094C122.938 18.7031 124.516 18.1406 126.094 18.0469C126.68 18.0078 127.898 17.9375 128.266 17.9219V17.25C128.266 16.4062 127.719 15.9219 126.734 15.9219C125.844 15.9219 125.297 16.3281 125.141 16.9375H123.219C123.359 15.5 124.656 14.4062 126.781 14.4062C128.391 14.4062 130.25 15.0625 130.25 17.3281V23H128.344V21.8281H128.281C127.906 22.5469 127.109 23.1719 125.781 23.1719C124.156 23.1719 122.938 22.2812 122.938 20.6094ZM124.859 20.5938C124.859 21.3281 125.453 21.7031 126.297 21.7031C127.5 21.7031 128.281 20.9062 128.281 19.9531V19.25C127.914 19.2734 126.805 19.3516 126.406 19.375C125.453 19.4531 124.859 19.8438 124.859 20.5938ZM136.359 14.5156V16.0469H134.688V20.4531C134.688 21.2656 135.094 21.4375 135.594 21.4375C135.828 21.4375 136.219 21.4219 136.469 21.4062V23.0312C136.234 23.0781 135.844 23.1094 135.344 23.1094C133.844 23.1094 132.688 22.375 132.703 20.7812V16.0469H131.484V14.5156H132.703V12.4844H134.688V14.5156H136.359ZM141.562 23.1719C139 23.1719 137.438 21.4688 137.438 18.8125C137.438 16.1875 139.031 14.4062 141.453 14.4062C143.531 14.4062 145.328 15.7031 145.328 18.6875V19.3125H139.406C139.43 20.7578 140.281 21.6094 141.578 21.6094C142.453 21.6094 143.047 21.2344 143.297 20.7344H145.25C144.891 22.2031 143.531 23.1719 141.562 23.1719ZM139.422 17.9531H143.422C143.406 16.7969 142.641 15.9531 141.484 15.9531C140.281 15.9531 139.484 16.8672 139.422 17.9531Z" fill="white"/>
<rect x="0.5" y="0.5" width="157" height="33" rx="16.5" stroke="#343434"/>
</svg>
