<svg width="24" height="24" viewBox="0 0 24 24" fill="none" xmlns="http://www.w3.org/2000/svg">
<rect width="24" height="24" fill="#4F4F4F"/>
<g id="Dark version" clip-path="url(#clip0_0_1)">
<rect width="1440" height="1057" transform="translate(-32 -296)" fill="#0B0D0F"/>
<g id="Group 40">
<rect id="Rectangle 8" x="-32" y="-296" width="204" height="1057" fill="#0B0D0F"/>
<g id="Frame 606">
<g id="Frame 427319399">
<g id="Frame 427319137">
<g clip-path="url(#clip1_0_1)">
<g id="Frame 1">
<g id="ph:folder-light">
<path id="Vector" d="M2.1875 18.8083L2.1875 18.8081L2.1875 5.25C2.1875 4.8356 2.35212 4.43817 2.64515 4.14515C2.93817 3.85212 3.3356 3.6875 3.75 3.6875H8.68947H8.68969V3.9375C8.8621 3.93718 9.03287 3.97098 9.19216 4.03695C9.35145 4.10292 9.49611 4.19975 9.61781 4.32188L2.1875 18.8083ZM2.1875 18.8083C2.1878 19.2072 2.34637 19.5896 2.6284 19.8716C2.91042 20.1536 3.29284 20.3122 3.69169 20.3125H3.69188H20.3334H20.3336C20.7258 20.3122 21.1017 20.1563 21.379 19.879C21.6563 19.6017 21.8122 19.2258 21.8125 18.8336V18.8334V8.25C21.8125 7.8356 21.6479 7.43817 21.3549 7.14515C21.0618 6.85212 20.6644 6.6875 20.25 6.6875H12.337L9.79489 4.14541M2.1875 18.8083L9.79489 4.14541M9.79489 4.14541C9.7948 4.14531 9.79471 4.14522 9.79461 4.14512C9.7946 4.14512 9.7946 4.14511 9.79459 4.1451L9.79489 4.14541ZM3.8125 6.6875V5.3125H8.66301L10.038 6.6875H3.8125ZM20.1875 8.3125V18.6875H3.8125V8.3125H20.1875Z" fill="#A8A8A8" stroke="#A8A8A8" stroke-width="0.5"/>
</g>
</g>
</g>
</g>
</g>
</g>
</g>
</g>
<defs>
<clipPath id="clip0_0_1">
<rect width="1440" height="1057" fill="white" transform="translate(-32 -296)"/>
</clipPath>
<clipPath id="clip1_0_1">
<rect x="-9" y="-17" width="162" height="58" rx="4" fill="white"/>
</clipPath>
</defs>
</svg>
