<svg width="144" height="31" viewBox="0 0 144 31" fill="none" xmlns="http://www.w3.org/2000/svg">
<rect width="144" height="31" rx="4" fill="#242627"/>
<path d="M26.5362 12.8223C26.4542 11.9746 25.7296 11.4824 24.6632 11.4824C23.5421 11.4824 22.8585 12.0293 22.8585 12.7676C22.8585 13.6016 23.7335 13.9434 24.5538 14.1348L25.4835 14.3809C26.96 14.7227 28.3819 15.502 28.3819 17.2246C28.3819 18.9609 27.0147 20.1504 24.6358 20.1504C22.3253 20.1504 20.876 19.043 20.794 17.0879H22.544C22.626 18.127 23.501 18.6328 24.6221 18.6328C25.7979 18.6328 26.6046 18.0586 26.6046 17.2109C26.6046 16.4316 25.88 16.1035 24.8135 15.8301L23.6925 15.543C22.0655 15.1191 21.0538 14.2988 21.0538 12.877C21.0538 11.127 22.6124 9.96484 24.6905 9.96484C26.796 9.96484 28.2178 11.1543 28.2452 12.8223H26.5362ZM32.8054 20.1504C30.5632 20.1504 29.196 18.6602 29.196 16.3359C29.196 14.0391 30.5905 12.4805 32.7097 12.4805C34.528 12.4805 36.1003 13.6152 36.1003 16.2266V16.7734H30.9186C30.9391 18.0381 31.6843 18.7832 32.819 18.7832C33.5847 18.7832 34.1042 18.4551 34.3229 18.0176H36.0319C35.7175 19.3027 34.528 20.1504 32.8054 20.1504ZM30.9323 15.584H34.4323C34.4186 14.5723 33.7487 13.834 32.737 13.834C31.6843 13.834 30.987 14.6338 30.9323 15.584ZM38.9378 10.1016V20H37.1878V10.1016H38.9378ZM43.6347 20.1504C41.3925 20.1504 40.0253 18.6602 40.0253 16.3359C40.0253 14.0391 41.4198 12.4805 43.539 12.4805C45.3573 12.4805 46.9296 13.6152 46.9296 16.2266V16.7734H41.748C41.7685 18.0381 42.5136 18.7832 43.6484 18.7832C44.414 18.7832 44.9335 18.4551 45.1523 18.0176H46.8612C46.5468 19.3027 45.3573 20.1504 43.6347 20.1504ZM41.7616 15.584H45.2616C45.248 14.5723 44.578 13.834 43.5663 13.834C42.5136 13.834 41.8163 14.6338 41.7616 15.584ZM51.2574 20.1504C49.0425 20.1504 47.7027 18.5645 47.7027 16.3223C47.7027 14.0527 49.0835 12.4805 51.2574 12.4805C53.062 12.4805 54.3199 13.5332 54.4429 15.1328H52.7749C52.6382 14.4219 52.1187 13.875 51.271 13.875C50.191 13.875 49.4663 14.791 49.4663 16.2812C49.4663 17.8125 50.1773 18.7285 51.271 18.7285C52.0503 18.7285 52.6245 18.2773 52.7749 17.4707H54.4429C54.3062 19.043 53.1167 20.1504 51.2574 20.1504ZM59.1945 12.5762V13.916H57.7316V17.7715C57.7316 18.4824 58.0871 18.6328 58.5246 18.6328C58.7296 18.6328 59.0714 18.6191 59.2902 18.6055V20.0273C59.0851 20.0684 58.7433 20.0957 58.3058 20.0957C56.9933 20.0957 55.9816 19.4531 55.9953 18.0586V13.916H54.9289V12.5762H55.9953V10.7988H57.7316V12.5762H59.1945ZM63.3246 20V12.5762H64.9926V13.834H65.0883C65.389 12.9863 66.141 12.4805 67.1254 12.4805C68.1371 12.4805 68.848 12.9863 69.1351 13.834H69.2172C69.5453 13.0137 70.3656 12.4805 71.4457 12.4805C72.7992 12.4805 73.7562 13.3555 73.7562 15.0098V20H72.0199V15.2832C72.0199 14.3535 71.4594 13.9434 70.7484 13.9434C69.8871 13.9434 69.3949 14.5312 69.3949 15.3652V20H67.6996V15.2148C67.6996 14.4492 67.1801 13.9434 66.4418 13.9434C65.6898 13.9434 65.0746 14.5586 65.0746 15.4883V20H63.3246ZM78.3984 20.1504C76.2383 20.1504 74.8438 18.6191 74.8438 16.3223C74.8438 14.0117 76.2383 12.4805 78.3984 12.4805C80.5723 12.4805 81.9531 14.0117 81.9531 16.3223C81.9531 18.6191 80.5723 20.1504 78.3984 20.1504ZM78.4121 18.7559C79.6016 18.7559 80.1895 17.6758 80.1895 16.3086C80.1895 14.9551 79.6016 13.8613 78.4121 13.8613C77.1953 13.8613 76.6074 14.9551 76.6074 16.3086C76.6074 17.6758 77.1953 18.7559 78.4121 18.7559ZM83.0406 20V12.5762H84.736V13.8066H84.818C85.0777 12.959 85.8024 12.4668 86.65 12.4668C86.8414 12.4668 87.1149 12.4805 87.2789 12.5078V14.1211C87.1285 14.0664 86.7594 14.0117 86.4723 14.0117C85.5016 14.0117 84.7906 14.6816 84.7906 15.625V20H83.0406ZM91.1008 20.1504C88.8586 20.1504 87.4914 18.6602 87.4914 16.3359C87.4914 14.0391 88.886 12.4805 91.0051 12.4805C92.8235 12.4805 94.3957 13.6152 94.3957 16.2266V16.7734H89.2141C89.2346 18.0381 89.9797 18.7832 91.1145 18.7832C91.8801 18.7832 92.3996 18.4551 92.6184 18.0176H94.3274C94.0129 19.3027 92.8235 20.1504 91.1008 20.1504ZM89.2278 15.584H92.7278C92.7141 14.5723 92.0442 13.834 91.0324 13.834C89.9797 13.834 89.2824 14.6338 89.2278 15.584ZM102.299 12.5762V13.916H100.768V20H99.018V13.916H97.9106V12.5762H99.018V11.8652C99.018 10.416 99.9204 9.63672 101.342 9.63672C101.752 9.63672 102.122 9.67773 102.45 9.74609V11.127C102.163 11.0859 101.944 11.0723 101.821 11.0723C101.11 11.0723 100.768 11.3594 100.768 12.0293V12.5762H102.299ZM103.277 20V12.5762H105.027V20H103.277ZM104.166 11.5234C103.619 11.5234 103.154 11.0996 103.154 10.5664C103.154 10.0469 103.619 9.62305 104.166 9.62305C104.727 9.62305 105.178 10.0469 105.178 10.5664C105.178 11.0996 104.727 11.5234 104.166 11.5234ZM108.179 10.1016V20H106.429V10.1016H108.179ZM112.876 20.1504C110.634 20.1504 109.267 18.6602 109.267 16.3359C109.267 14.0391 110.661 12.4805 112.781 12.4805C114.599 12.4805 116.171 13.6152 116.171 16.2266V16.7734H110.99C111.01 18.0381 111.755 18.7832 112.89 18.7832C113.656 18.7832 114.175 18.4551 114.394 18.0176H116.103C115.788 19.3027 114.599 20.1504 112.876 20.1504ZM111.003 15.584H114.503C114.49 14.5723 113.82 13.834 112.808 13.834C111.755 13.834 111.058 14.6338 111.003 15.584ZM121.47 14.6953C121.36 14.1348 120.895 13.7793 120.157 13.7793C119.405 13.7793 118.858 14.1484 118.872 14.6543C118.858 15.0371 119.173 15.3242 119.925 15.502L121.183 15.7617C122.591 16.0762 123.261 16.7188 123.274 17.7852C123.261 19.1797 122.044 20.1504 120.102 20.1504C118.216 20.1504 117.095 19.3027 116.917 17.8809H118.694C118.804 18.5098 119.296 18.8242 120.102 18.8242C120.936 18.8242 121.497 18.4824 121.497 17.9355C121.497 17.5117 121.155 17.2383 120.417 17.0742L119.227 16.8145C117.847 16.541 117.136 15.8164 117.136 14.75C117.136 13.3828 118.311 12.4805 120.13 12.4805C121.907 12.4805 123.001 13.3418 123.124 14.6953H121.47Z" fill="white"/>
</svg>
