<svg width="133" height="32" viewBox="0 0 133 32" fill="none" xmlns="http://www.w3.org/2000/svg">
<rect y="0.5" width="132.936" height="31" rx="4" fill="#242627"/>
<path d="M21.4077 20.5V10.6016H23.1851V15.1543H23.3218L27.191 10.6016H29.3648L25.5367 15.0449L29.4058 20.5H27.2593L24.2925 16.248L23.1851 17.5469V20.5H21.4077ZM31.9015 16.1523V20.5H30.1515V13.0762H31.8195V14.334H31.9152C32.257 13.5 33.0089 12.9805 34.1164 12.9805C35.6613 12.9805 36.673 13.9922 36.6593 15.7695V20.5H34.923V16.043C34.923 15.0449 34.3898 14.457 33.4738 14.457C32.5441 14.457 31.9015 15.0723 31.9015 16.1523ZM41.3015 20.6504C39.1414 20.6504 37.7468 19.1191 37.7468 16.8223C37.7468 14.5117 39.1414 12.9805 41.3015 12.9805C43.4754 12.9805 44.8562 14.5117 44.8562 16.8223C44.8562 19.1191 43.4754 20.6504 41.3015 20.6504ZM41.3152 19.2559C42.5047 19.2559 43.0925 18.1758 43.0925 16.8086C43.0925 15.4551 42.5047 14.3613 41.3152 14.3613C40.0984 14.3613 39.5105 15.4551 39.5105 16.8086C39.5105 18.1758 40.0984 19.2559 41.3152 19.2559ZM47.2836 20.5L45.1781 13.0762H46.9555L48.268 18.2988H48.3363L49.6625 13.0762H51.4262L52.766 18.2715H52.8344L54.1332 13.0762H55.9105L53.8051 20.5H51.9867L50.5922 15.4688H50.4965L49.1019 20.5H47.2836ZM59.8902 10.6016H62.0777L65.0172 17.793H65.1402L68.0797 10.6016H70.2672V20.5H68.5582V13.6914H68.4625L65.7145 20.4727H64.443L61.6949 13.6641H61.6129V20.5H59.8902V10.6016ZM74.9914 20.6504C72.8313 20.6504 71.4367 19.1191 71.4367 16.8223C71.4367 14.5117 72.8313 12.9805 74.9914 12.9805C77.1653 12.9805 78.5461 14.5117 78.5461 16.8223C78.5461 19.1191 77.1653 20.6504 74.9914 20.6504ZM75.0051 19.2559C76.1946 19.2559 76.7825 18.1758 76.7825 16.8086C76.7825 15.4551 76.1946 14.3613 75.0051 14.3613C73.7883 14.3613 73.2004 15.4551 73.2004 16.8086C73.2004 18.1758 73.7883 19.2559 75.0051 19.2559ZM79.6336 20.5V13.0762H81.329V14.3066H81.411C81.6707 13.459 82.3954 12.9668 83.243 12.9668C83.4344 12.9668 83.7079 12.9805 83.8719 13.0078V14.6211C83.7215 14.5664 83.3524 14.5117 83.0653 14.5117C82.0946 14.5117 81.3836 15.1816 81.3836 16.125V20.5H79.6336ZM87.6938 20.6504C85.4516 20.6504 84.0844 19.1602 84.0844 16.8359C84.0844 14.5391 85.479 12.9805 87.5981 12.9805C89.4165 12.9805 90.9887 14.1152 90.9887 16.7266V17.2734H85.8071C85.8276 18.5381 86.5727 19.2832 87.7075 19.2832C88.4731 19.2832 88.9926 18.9551 89.2114 18.5176H90.9204C90.6059 19.8027 89.4165 20.6504 87.6938 20.6504ZM85.8208 16.084H89.3208C89.3071 15.0723 88.6372 14.334 87.6255 14.334C86.5727 14.334 85.8755 15.1338 85.8208 16.084Z" fill="white"/>
<g clip-path="url(#clip0_307_3795)">
<path d="M106.355 13.9534L102.229 13.8309L102.229 13.8309C102.075 13.8263 101.927 13.7607 101.817 13.6507C101.707 13.5407 101.641 13.3929 101.637 13.2383C101.632 13.0832 101.689 12.9337 101.799 12.8245C101.908 12.7152 102.057 12.658 102.212 12.6626L107.732 12.8272L106.355 13.9534ZM106.355 13.9534L101.071 19.2371C100.962 19.3462 100.905 19.4956 100.909 19.6505C100.914 19.805 100.98 19.9526 101.089 20.0625C101.199 20.1724 101.347 20.238 101.501 20.2426C101.656 20.2472 101.806 20.19 101.915 20.0808L107.199 14.7971L107.321 18.9226L107.321 18.9226C107.326 19.0772 107.391 19.225 107.501 19.335C107.611 19.445 107.759 19.5106 107.914 19.5152C108.069 19.5199 108.218 19.4626 108.327 19.3533C108.437 19.2441 108.494 19.0946 108.489 18.9396L108.325 13.42L106.355 13.9534ZM108.274 13.1969C108.305 13.2675 108.323 13.3432 108.325 13.4198L108.274 13.1969ZM108.274 13.1969C108.243 13.1263 108.199 13.0619 108.145 13.0073M108.274 13.1969L108.145 13.0073M108.145 13.0073C108.09 12.9526 108.026 12.9085 107.955 12.8776M108.145 13.0073L107.955 12.8776M107.955 12.8776C107.884 12.8467 107.809 12.8294 107.732 12.8272L107.955 12.8776Z" fill="white" stroke="white" stroke-width="0.3"/>
</g>
<defs>
<clipPath id="clip0_307_3795">
<rect width="11.5665" height="10.9706" fill="white" transform="translate(97 16.2107) rotate(-45)"/>
</clipPath>
</defs>
</svg>
