<svg width="24" height="25" viewBox="0 0 24 25" fill="none" xmlns="http://www.w3.org/2000/svg">
<g clip-path="url(#clip0_307_3675)">
<path d="M21.5531 4.49994C21.4622 4.49058 21.3706 4.49058 21.2798 4.49994H2.6131C2.49346 4.50179 2.37462 4.51972 2.25977 4.55328L11.8931 14.1466L21.5531 4.49994Z" fill="white"/>
<path d="M22.5404 5.42664L12.8338 15.0933C12.584 15.3416 12.246 15.481 11.8938 15.481C11.5415 15.481 11.2036 15.3416 10.9538 15.0933L1.33378 5.49997C1.3042 5.60866 1.28852 5.72067 1.28711 5.8333V19.1666C1.28711 19.5203 1.42759 19.8594 1.67763 20.1094C1.92768 20.3595 2.26682 20.5 2.62044 20.5H21.2871C21.6407 20.5 21.9799 20.3595 22.2299 20.1094C22.48 19.8594 22.6204 19.5203 22.6204 19.1666V5.8333C22.6151 5.69441 22.5881 5.55719 22.5404 5.42664ZM3.53378 19.1666H2.60711V18.2133L7.45378 13.4066L8.39378 14.3466L3.53378 19.1666ZM21.2738 19.1666H20.3404L15.4804 14.3466L16.4204 13.4066L21.2671 18.2133L21.2738 19.1666Z" fill="white"/>
</g>
<defs>
<clipPath id="clip0_307_3675">
<rect width="24" height="24" fill="white" transform="translate(0 0.5)"/>
</clipPath>
</defs>
</svg>
