<svg width="24" height="25" viewBox="0 0 24 25" fill="none" xmlns="http://www.w3.org/2000/svg">
<path d="M11.95 18.5C12.3 18.5 12.596 18.379 12.838 18.137C13.08 17.895 13.2007 17.5993 13.2 17.25C13.2 16.9 13.0793 16.604 12.838 16.362C12.5967 16.12 12.3007 15.9993 11.95 16C11.6 16 11.3043 16.121 11.063 16.363C10.8217 16.605 10.7007 16.9007 10.7 17.25C10.7 17.6 10.821 17.896 11.063 18.138C11.305 18.38 11.6007 18.5007 11.95 18.5ZM11.05 14.65H12.9C12.9 14.1 12.9627 13.6667 13.088 13.35C13.2133 13.0333 13.5673 12.6 14.15 12.05C14.5833 11.6167 14.925 11.204 15.175 10.812C15.425 10.42 15.55 9.94933 15.55 9.4C15.55 8.46667 15.2083 7.75 14.525 7.25C13.8417 6.75 13.0333 6.5 12.1 6.5C11.15 6.5 10.379 6.75 9.787 7.25C9.195 7.75 8.78267 8.35 8.55 9.05L10.2 9.7C10.2833 9.4 10.471 9.075 10.763 8.725C11.055 8.375 11.5007 8.2 12.1 8.2C12.6333 8.2 13.0333 8.346 13.3 8.638C13.5667 8.93 13.7 9.25067 13.7 9.6C13.7 9.93333 13.6 10.246 13.4 10.538C13.2 10.83 12.95 11.1007 12.65 11.35C11.9167 12 11.4667 12.4917 11.3 12.825C11.1333 13.1583 11.05 13.7667 11.05 14.65ZM12 22.5C10.6167 22.5 9.31667 22.2373 8.1 21.712C6.88333 21.1867 5.825 20.4743 4.925 19.575C4.025 18.675 3.31267 17.6167 2.788 16.4C2.26333 15.1833 2.00067 13.8833 2 12.5C2 11.1167 2.26267 9.81667 2.788 8.6C3.31333 7.38333 4.02567 6.325 4.925 5.425C5.825 4.525 6.88333 3.81267 8.1 3.288C9.31667 2.76333 10.6167 2.50067 12 2.5C13.3833 2.5 14.6833 2.76267 15.9 3.288C17.1167 3.81333 18.175 4.52567 19.075 5.425C19.975 6.325 20.6877 7.38333 21.213 8.6C21.7383 9.81667 22.0007 11.1167 22 12.5C22 13.8833 21.7373 15.1833 21.212 16.4C20.6867 17.6167 19.9743 18.675 19.075 19.575C18.175 20.475 17.1167 21.1877 15.9 21.713C14.6833 22.2383 13.3833 22.5007 12 22.5ZM12 20.5C14.2333 20.5 16.125 19.725 17.675 18.175C19.225 16.625 20 14.7333 20 12.5C20 10.2667 19.225 8.375 17.675 6.825C16.125 5.275 14.2333 4.5 12 4.5C9.76667 4.5 7.875 5.275 6.325 6.825C4.775 8.375 4 10.2667 4 12.5C4 14.7333 4.775 16.625 6.325 18.175C7.875 19.725 9.76667 20.5 12 20.5Z" fill="white"/>
</svg>
