<svg width="24" height="25" viewBox="0 0 24 25" fill="none" xmlns="http://www.w3.org/2000/svg">
<path d="M10.9 9.7H13.1V7.5H10.9M12 21.8C7.149 21.8 3.2 17.851 3.2 13C3.2 8.149 7.149 4.2 12 4.2C16.851 4.2 20.8 8.149 20.8 13C20.8 17.851 16.851 21.8 12 21.8ZM12 2C10.5555 2 9.12506 2.28452 7.79048 2.83733C6.4559 3.39013 5.24327 4.20038 4.22183 5.22183C2.15893 7.28473 1 10.0826 1 13C1 15.9174 2.15893 18.7153 4.22183 20.7782C5.24327 21.7996 6.4559 22.6099 7.79048 23.1627C9.12506 23.7155 10.5555 24 12 24C14.9174 24 17.7153 22.8411 19.7782 20.7782C21.8411 18.7153 23 15.9174 23 13C23 11.5555 22.7155 10.1251 22.1627 8.79048C21.6099 7.4559 20.7996 6.24327 19.7782 5.22183C18.7567 4.20038 17.5441 3.39013 16.2095 2.83733C14.8749 2.28452 13.4445 2 12 2ZM10.9 18.5H13.1V11.9H10.9V18.5Z" fill="white"/>
</svg>
