<svg width="24" height="25" viewBox="0 0 24 25" fill="none" xmlns="http://www.w3.org/2000/svg">
<path d="M12.0004 4.70002C14.0691 4.70002 16.053 5.52181 17.5158 6.98459C18.9786 8.44738 19.8004 10.4313 19.8004 12.5C19.8004 14.5687 18.9786 16.5527 17.5158 18.0155C16.053 19.4782 14.0691 20.3 12.0004 20.3V4.70002ZM12.0004 2.90002C9.45431 2.90002 7.01252 3.91145 5.21217 5.7118C3.41182 7.51215 2.40039 9.95395 2.40039 12.5C2.40039 15.0461 3.41182 17.4879 5.21217 19.2882C7.01252 21.0886 9.45431 22.1 12.0004 22.1C14.5465 22.1 16.9883 21.0886 18.7886 19.2882C20.589 17.4879 21.6004 15.0461 21.6004 12.5C21.6004 9.95395 20.589 7.51215 18.7886 5.7118C16.9883 3.91145 14.5465 2.90002 12.0004 2.90002Z" fill="white"/>
</svg>
