<svg width="24" height="25" viewBox="0 0 24 25" fill="none" xmlns="http://www.w3.org/2000/svg">
<path d="M7.80078 5.5H16.2008V6.9H7.80078V5.5ZM7.80078 8.3H16.2008V9.7H7.80078V8.3ZM7.80078 18.1H12.0008V19.5H7.80078V18.1ZM7.80078 11.1H12.0008V12.5H7.80078V11.1Z" fill="white"/>
<path d="M17.6 22.3H6.4C6.02881 22.2996 5.67293 22.152 5.41046 21.8895C5.14799 21.627 5.00037 21.2711 5 20.9V4.09995C5.00037 3.72876 5.14799 3.37288 5.41046 3.11041C5.67293 2.84794 6.02881 2.70032 6.4 2.69995H17.6C17.9712 2.70032 18.3271 2.84794 18.5895 3.11041C18.852 3.37288 18.9996 3.72876 19 4.09995V20.9C18.9996 21.2711 18.852 21.627 18.5895 21.8895C18.3271 22.152 17.9712 22.2996 17.6 22.3ZM6.4 4.09995V20.9H17.6V4.09995H6.4Z" fill="white"/>
</svg>
