<svg width="135" height="31" viewBox="0 0 135 31" fill="none" xmlns="http://www.w3.org/2000/svg">
<g opacity="0.5">
<rect width="135" height="31" rx="4" fill="#407795"/>
<path d="M23.4717 12.8223C23.3897 11.9746 22.6651 11.4824 21.5987 11.4824C20.4776 11.4824 19.794 12.0293 19.794 12.7676C19.794 13.6016 20.669 13.9434 21.4893 14.1348L22.419 14.3809C23.8956 14.7227 25.3175 15.502 25.3175 17.2246C25.3175 18.9609 23.9503 20.1504 21.5714 20.1504C19.2608 20.1504 17.8116 19.043 17.7296 17.0879H19.4796C19.5616 18.127 20.4366 18.6328 21.5577 18.6328C22.7335 18.6328 23.5401 18.0586 23.5401 17.2109C23.5401 16.4316 22.8155 16.1035 21.7491 15.8301L20.628 15.543C19.001 15.1191 17.9893 14.2988 17.9893 12.877C17.9893 11.127 19.5479 9.96484 21.626 9.96484C23.7315 9.96484 25.1534 11.1543 25.1807 12.8223H23.4717ZM30.1511 12.5762V13.916H28.6882V17.7715C28.6882 18.4824 29.0436 18.6328 29.4811 18.6328C29.6862 18.6328 30.028 18.6191 30.2468 18.6055V20.0273C30.0417 20.0684 29.6999 20.0957 29.2624 20.0957C27.9499 20.0957 26.9382 19.4531 26.9518 18.0586V13.916H25.8854V12.5762H26.9518V10.7988H28.6882V12.5762H30.1511ZM30.8831 17.9082C30.8831 16.2402 32.264 15.748 33.6448 15.666C34.1575 15.6318 35.2239 15.5703 35.5452 15.5566V14.9688C35.5452 14.2305 35.0667 13.8066 34.2054 13.8066C33.4261 13.8066 32.9476 14.1621 32.8108 14.6953H31.1292C31.2522 13.4375 32.387 12.4805 34.2464 12.4805C35.6546 12.4805 37.2815 13.0547 37.2815 15.0371V20H35.6136V18.9746H35.5589C35.2308 19.6035 34.5335 20.1504 33.3714 20.1504C31.9495 20.1504 30.8831 19.3711 30.8831 17.9082ZM32.5647 17.8945C32.5647 18.5371 33.0843 18.8652 33.8226 18.8652C34.8753 18.8652 35.5589 18.168 35.5589 17.334V16.7188C35.2376 16.7393 34.2669 16.8076 33.9183 16.8281C33.0843 16.8965 32.5647 17.2383 32.5647 17.8945ZM38.6562 20V12.5762H40.3515V13.8066H40.4335C40.6933 12.959 41.4179 12.4668 42.2655 12.4668C42.457 12.4668 42.7304 12.4805 42.8945 12.5078V14.1211C42.7441 14.0664 42.3749 14.0117 42.0878 14.0117C41.1171 14.0117 40.4062 14.6816 40.4062 15.625V20H38.6562ZM47.7827 12.5762V13.916H46.3199V17.7715C46.3199 18.4824 46.6753 18.6328 47.1128 18.6328C47.3179 18.6328 47.6597 18.6191 47.8785 18.6055V20.0273C47.6734 20.0684 47.3316 20.0957 46.8941 20.0957C45.5816 20.0957 44.5699 19.4531 44.5835 18.0586V13.916H43.5171V12.5762H44.5835V10.7988H46.3199V12.5762H47.7827ZM55.0512 20V10.1016H61.4906V11.5918H56.8285V14.2988H61.1488V15.7891H56.8285V18.4961H61.518V20H55.0512ZM64.2734 12.5762L65.7773 15.3242L67.3086 12.5762H69.1543L66.9121 16.2812L69.1953 20H67.3633L65.7773 17.3203L64.2324 20H62.373L64.6426 16.2812L62.4277 12.5762H64.2734ZM73.8238 12.5762V13.916H72.361V17.7715C72.361 18.4824 72.7164 18.6328 73.1539 18.6328C73.359 18.6328 73.7008 18.6191 73.9195 18.6055V20.0273C73.7145 20.0684 73.3727 20.0957 72.9352 20.0957C71.6227 20.0957 70.611 19.4531 70.6246 18.0586V13.916H69.5582V12.5762H70.6246V10.7988H72.361V12.5762H73.8238ZM74.8977 20V12.5762H76.593V13.8066H76.675C76.9348 12.959 77.6594 12.4668 78.5071 12.4668C78.6985 12.4668 78.9719 12.4805 79.136 12.5078V14.1211C78.9856 14.0664 78.6164 14.0117 78.3293 14.0117C77.3586 14.0117 76.6477 14.6816 76.6477 15.625V20H74.8977ZM79.4305 17.9082C79.4305 16.2402 80.8114 15.748 82.1922 15.666C82.7049 15.6318 83.7713 15.5703 84.0926 15.5566V14.9688C84.0926 14.2305 83.6141 13.8066 82.7528 13.8066C81.9735 13.8066 81.495 14.1621 81.3582 14.6953H79.6766C79.7997 13.4375 80.9344 12.4805 82.7938 12.4805C84.202 12.4805 85.829 13.0547 85.829 15.0371V20H84.161V18.9746H84.1063C83.7782 19.6035 83.0809 20.1504 81.9188 20.1504C80.4969 20.1504 79.4305 19.3711 79.4305 17.9082ZM81.1122 17.8945C81.1122 18.5371 81.6317 18.8652 82.37 18.8652C83.4227 18.8652 84.1063 18.168 84.1063 17.334V16.7188C83.785 16.7393 82.8143 16.8076 82.4657 16.8281C81.6317 16.8965 81.1122 17.2383 81.1122 17.8945ZM90.4438 20.1504C88.229 20.1504 86.8891 18.5645 86.8891 16.3223C86.8891 14.0527 88.27 12.4805 90.4438 12.4805C92.2485 12.4805 93.5063 13.5332 93.6294 15.1328H91.9614C91.8247 14.4219 91.3051 13.875 90.4575 13.875C89.3774 13.875 88.6528 14.791 88.6528 16.2812C88.6528 17.8125 89.3637 18.7285 90.4575 18.7285C91.2368 18.7285 91.811 18.2773 91.9614 17.4707H93.6294C93.4926 19.043 92.3032 20.1504 90.4438 20.1504ZM98.3809 12.5762V13.916H96.918V17.7715C96.918 18.4824 97.2735 18.6328 97.711 18.6328C97.9161 18.6328 98.2579 18.6191 98.4766 18.6055V20.0273C98.2716 20.0684 97.9298 20.0957 97.4923 20.0957C96.1798 20.0957 95.168 19.4531 95.1817 18.0586V13.916H94.1153V12.5762H95.1817V10.7988H96.918V12.5762H98.3809ZM99.4548 20V12.5762H101.205V20H99.4548ZM100.343 11.5234C99.7966 11.5234 99.3317 11.0996 99.3317 10.5664C99.3317 10.0469 99.7966 9.62305 100.343 9.62305C100.904 9.62305 101.355 10.0469 101.355 10.5664C101.355 11.0996 100.904 11.5234 100.343 11.5234ZM105.847 20.1504C103.687 20.1504 102.292 18.6191 102.292 16.3223C102.292 14.0117 103.687 12.4805 105.847 12.4805C108.021 12.4805 109.402 14.0117 109.402 16.3223C109.402 18.6191 108.021 20.1504 105.847 20.1504ZM105.861 18.7559C107.05 18.7559 107.638 17.6758 107.638 16.3086C107.638 14.9551 107.05 13.8613 105.861 13.8613C104.644 13.8613 104.056 14.9551 104.056 16.3086C104.056 17.6758 104.644 18.7559 105.861 18.7559ZM112.239 15.6523V20H110.489V12.5762H112.157V13.834H112.253C112.595 13 113.347 12.4805 114.454 12.4805C115.999 12.4805 117.011 13.4922 116.997 15.2695V20H115.261V15.543C115.261 14.5449 114.727 13.957 113.811 13.957C112.882 13.957 112.239 14.5723 112.239 15.6523Z" fill="white"/>
</g>
</svg>
