<svg width="116" height="31" viewBox="0 0 116 31" fill="none" xmlns="http://www.w3.org/2000/svg">
<rect width="116" height="31" rx="4" fill="#407795"/>
<path d="M23.5532 12.8223C23.4712 11.9746 22.7466 11.4824 21.6802 11.4824C20.5591 11.4824 19.8755 12.0293 19.8755 12.7676C19.8755 13.6016 20.7505 13.9434 21.5708 14.1348L22.5005 14.3809C23.977 14.7227 25.3989 15.502 25.3989 17.2246C25.3989 18.9609 24.0317 20.1504 21.6528 20.1504C19.3423 20.1504 17.8931 19.043 17.811 17.0879H19.561C19.6431 18.127 20.5181 18.6328 21.6392 18.6328C22.8149 18.6328 23.6216 18.0586 23.6216 17.2109C23.6216 16.4316 22.897 16.1035 21.8306 15.8301L20.7095 15.543C19.0825 15.1191 18.0708 14.2988 18.0708 12.877C18.0708 11.127 19.6294 9.96484 21.7075 9.96484C23.813 9.96484 25.2349 11.1543 25.2622 12.8223H23.5532ZM30.2325 12.5762V13.916H28.7696V17.7715C28.7696 18.4824 29.1251 18.6328 29.5626 18.6328C29.7677 18.6328 30.1095 18.6191 30.3282 18.6055V20.0273C30.1232 20.0684 29.7814 20.0957 29.3439 20.0957C28.0314 20.0957 27.0196 19.4531 27.0333 18.0586V13.916H25.9669V12.5762H27.0333V10.7988H28.7696V12.5762H30.2325ZM30.9646 17.9082C30.9646 16.2402 32.3454 15.748 33.7263 15.666C34.239 15.6318 35.3054 15.5703 35.6267 15.5566V14.9688C35.6267 14.2305 35.1482 13.8066 34.2868 13.8066C33.5075 13.8066 33.029 14.1621 32.8923 14.6953H31.2107C31.3337 13.4375 32.4685 12.4805 34.3279 12.4805C35.7361 12.4805 37.363 13.0547 37.363 15.0371V20H35.695V18.9746H35.6404C35.3122 19.6035 34.615 20.1504 33.4529 20.1504C32.031 20.1504 30.9646 19.3711 30.9646 17.9082ZM32.6462 17.8945C32.6462 18.5371 33.1658 18.8652 33.904 18.8652C34.9568 18.8652 35.6404 18.168 35.6404 17.334V16.7188C35.3191 16.7393 34.3484 16.8076 33.9997 16.8281C33.1658 16.8965 32.6462 17.2383 32.6462 17.8945ZM38.7376 20V12.5762H40.433V13.8066H40.515C40.7747 12.959 41.4994 12.4668 42.347 12.4668C42.5384 12.4668 42.8119 12.4805 42.9759 12.5078V14.1211C42.8255 14.0664 42.4564 14.0117 42.1693 14.0117C41.1986 14.0117 40.4876 14.6816 40.4876 15.625V20H38.7376ZM47.8642 12.5762V13.916H46.4013V17.7715C46.4013 18.4824 46.7568 18.6328 47.1943 18.6328C47.3994 18.6328 47.7412 18.6191 47.9599 18.6055V20.0273C47.7548 20.0684 47.413 20.0957 46.9755 20.0957C45.663 20.0957 44.6513 19.4531 44.665 18.0586V13.916H43.5986V12.5762H44.665V10.7988H46.4013V12.5762H47.8642ZM55.6994 12.5762V13.916H54.2365V17.7715C54.2365 18.4824 54.592 18.6328 55.0295 18.6328C55.2346 18.6328 55.5764 18.6191 55.7951 18.6055V20.0273C55.59 20.0684 55.2482 20.0957 54.8107 20.0957C53.4982 20.0957 52.4865 19.4531 52.5002 18.0586V13.916H51.4338V12.5762H52.5002V10.7988H54.2365V12.5762H55.6994ZM56.7733 20V12.5762H58.4686V13.8066H58.5506C58.8104 12.959 59.535 12.4668 60.3826 12.4668C60.574 12.4668 60.8475 12.4805 61.0115 12.5078V14.1211C60.8611 14.0664 60.492 14.0117 60.2049 14.0117C59.2342 14.0117 58.5233 14.6816 58.5233 15.625V20H56.7733ZM61.3061 17.9082C61.3061 16.2402 62.6869 15.748 64.0678 15.666C64.5805 15.6318 65.6469 15.5703 65.9682 15.5566V14.9688C65.9682 14.2305 65.4897 13.8066 64.6283 13.8066C63.849 13.8066 63.3705 14.1621 63.2338 14.6953H61.5522C61.6752 13.4375 62.81 12.4805 64.6694 12.4805C66.0776 12.4805 67.7045 13.0547 67.7045 15.0371V20H66.0365V18.9746H65.9819C65.6537 19.6035 64.9565 20.1504 63.7944 20.1504C62.3725 20.1504 61.3061 19.3711 61.3061 17.9082ZM62.9877 17.8945C62.9877 18.5371 63.5073 18.8652 64.2455 18.8652C65.2983 18.8652 65.9819 18.168 65.9819 17.334V16.7188C65.6606 16.7393 64.6899 16.8076 64.3412 16.8281C63.5073 16.8965 62.9877 17.2383 62.9877 17.8945ZM69.0791 20V12.5762H70.8291V20H69.0791ZM69.9678 11.5234C69.4209 11.5234 68.9561 11.0996 68.9561 10.5664C68.9561 10.0469 69.4209 9.62305 69.9678 9.62305C70.5284 9.62305 70.9795 10.0469 70.9795 10.5664C70.9795 11.0996 70.5284 11.5234 69.9678 11.5234ZM73.9811 15.6523V20H72.2311V12.5762H73.8991V13.834H73.9948C74.3366 13 75.0885 12.4805 76.196 12.4805C77.7409 12.4805 78.7526 13.4922 78.7389 15.2695V20H77.0026V15.543C77.0026 14.5449 76.4694 13.957 75.5534 13.957C74.6237 13.957 73.9811 14.5723 73.9811 15.6523ZM80.1409 20V12.5762H81.8909V20H80.1409ZM81.0296 11.5234C80.4827 11.5234 80.0178 11.0996 80.0178 10.5664C80.0178 10.0469 80.4827 9.62305 81.0296 9.62305C81.5901 9.62305 82.0413 10.0469 82.0413 10.5664C82.0413 11.0996 81.5901 11.5234 81.0296 11.5234ZM85.0429 15.6523V20H83.2929V12.5762H84.9608V13.834H85.0565C85.3983 13 86.1503 12.4805 87.2577 12.4805C88.8026 12.4805 89.8143 13.4922 89.8007 15.2695V20H88.0643V15.543C88.0643 14.5449 87.5311 13.957 86.6151 13.957C85.6854 13.957 85.0429 14.5723 85.0429 15.6523ZM94.4429 22.9395C92.4741 22.9395 91.23 22.0645 91.1069 20.6699H92.8433C92.9663 21.3125 93.5815 21.627 94.4702 21.627C95.5093 21.627 96.1929 21.1758 96.1929 20.082V18.6602H96.1108C95.8374 19.207 95.2495 19.8906 93.9644 19.8906C92.2554 19.8906 90.9019 18.6465 90.9019 16.2266C90.9019 13.7793 92.2554 12.4805 93.978 12.4805C95.2905 12.4805 95.8374 13.2598 96.1108 13.793H96.1929V12.5762H97.9155V20.123C97.9155 22.0234 96.4526 22.9395 94.4429 22.9395ZM94.4429 18.5234C95.564 18.5234 96.2065 17.6758 96.2065 16.2539C96.2065 14.8457 95.5776 13.9023 94.4429 13.9023C93.2808 13.9023 92.6792 14.9004 92.6792 16.2539C92.6792 17.6211 93.2944 18.5234 94.4429 18.5234Z" fill="white"/>
</svg>
