<svg width="16" height="18" viewBox="0 0 16 18" fill="none" xmlns="http://www.w3.org/2000/svg">
<path d="M15.1992 4.2H15.7992V3.9516L15.624 3.7752L15.1992 4.2ZM11.5992 0.6L12.024 0.1752L11.8476 0H11.5992V0.6ZM6.79922 12.6H6.19922V13.2H6.79922V12.6ZM4.39922 11.4H4.99922V11.1516L4.82402 10.9752L4.39922 11.4ZM1.99922 9H1.39922V9.2484L1.57442 9.4248L1.99922 9ZM11.5992 7.8V7.2H10.9992V7.8H11.5992ZM11.5992 10.2H10.9992V10.8H11.5992V10.2ZM13.9992 10.2H14.5992V9.6H13.9992V10.2ZM13.9992 12.6V13.2H14.5992V12.6H13.9992ZM1.99922 11.4L1.57442 10.9752L1.39922 11.1516V11.4H1.99922ZM4.39922 9L4.82402 9.4248L4.99922 9.2484V9H4.39922ZM1.39922 6V1.8H0.199219V6H1.39922ZM14.5992 4.2V6H15.7992V4.2H14.5992ZM1.99922 1.2H11.5992V0H1.99922V1.2ZM11.1744 1.0248L14.7744 4.6248L15.624 3.7752L12.024 0.1752L11.1744 1.0248ZM1.39922 1.8C1.39922 1.64087 1.46243 1.48826 1.57495 1.37574C1.68748 1.26321 1.84009 1.2 1.99922 1.2V0C1.52183 0 1.06399 0.189642 0.726427 0.527208C0.388861 0.864773 0.199219 1.32261 0.199219 1.8H1.39922ZM0.199219 14.4V16.2H1.39922V14.4H0.199219ZM1.99922 18H13.9992V16.8H1.99922V18ZM15.7992 16.2V14.4H14.5992V16.2H15.7992ZM13.9992 18C14.4766 18 14.9344 17.8104 15.272 17.4728C15.6096 17.1352 15.7992 16.6774 15.7992 16.2H14.5992C14.5992 16.3591 14.536 16.5117 14.4235 16.6243C14.311 16.7368 14.1583 16.8 13.9992 16.8V18ZM0.199219 16.2C0.199219 16.6774 0.388861 17.1352 0.726427 17.4728C1.06399 17.8104 1.52183 18 1.99922 18V16.8C1.84009 16.8 1.68748 16.7368 1.57495 16.6243C1.46243 16.5117 1.39922 16.3591 1.39922 16.2H0.199219ZM6.19922 7.2V12.6H7.39922V7.2H6.19922ZM6.79922 13.2H9.79922V12H6.79922V13.2ZM3.79922 11.4V13.2H4.99922V11.4H3.79922ZM4.82402 10.9752L2.42402 8.5752L1.57442 9.4248L3.97442 11.8248L4.82402 10.9752ZM2.59922 9V7.2H1.39922V9H2.59922ZM14.5992 7.2H11.5992V8.4H14.5992V7.2ZM10.9992 7.8V10.2H12.1992V7.8H10.9992ZM11.5992 10.8H13.9992V9.6H11.5992V10.8ZM13.3992 10.2V12.6H14.5992V10.2H13.3992ZM13.9992 12H10.9992V13.2H13.9992V12ZM2.59922 13.2V11.4H1.39922V13.2H2.59922ZM2.42402 11.8248L4.82402 9.4248L3.97442 8.5752L1.57442 10.9752L2.42402 11.8248ZM4.99922 9V7.2H3.79922V9H4.99922Z" fill="white"/>
</svg>
